<?xml version="1.0"?>
<svg xmlns:rdf="http://www.w3.org/1999/02/22-rdf-syntax-ns#" xmlns="http://www.w3.org/2000/svg" xmlns:cc="http://web.resource.org/cc/" xmlns:xlink="http://www.w3.org/1999/xlink" xmlns:dc="http://purl.org/dc/elements/1.1/" xmlns:svg="http://www.w3.org/2000/svg" id="svg2" viewBox="0 0 708.66 708.66" version="1.0">
  <defs id="defs4">
    <linearGradient id="linearGradient899">
      <stop id="stop900" stop-color="#fff" stop-opacity="0" offset="0"/>
      <stop id="stop901" stop-color="#fff" offset="1"/>
    </linearGradient>
    <linearGradient id="linearGradient2309" x1="333.88" xlink:href="#linearGradient899" gradientUnits="userSpaceOnUse" y1="452.34" gradientTransform="matrix(.97225 0 0 1.0106 29.264 -4.8752)" x2="332.59" y2="435.47"/>
    <linearGradient id="linearGradient2311" x1="339.8" gradientUnits="userSpaceOnUse" y1="440.27" gradientTransform="matrix(.98869 0 0 1 23.674 0)" x2="347.75" y2="453.59">
      <stop id="stop11741" stop-color="#fff" offset="0"/>
      <stop id="stop11743" stop-color="#fff" stop-opacity="0" offset="1"/>
    </linearGradient>
    <linearGradient id="linearGradient2313" x1="334.57" xlink:href="#linearGradient899" gradientUnits="userSpaceOnUse" y1="451.43" gradientTransform="matrix(.97225 0 0 1.0106 9.2638 -4.8752)" x2="331.26" y2="462.76"/>
    <linearGradient id="linearGradient2315" x1="438.4" xlink:href="#linearGradient899" gradientUnits="userSpaceOnUse" x2="436.75" y1="460.98" y2="454.83"/>
  </defs>
  <g id="layer1">
    <g id="g2274" transform="matrix(1.1768 0 0 1.1768 -48.932 -33.182)">
      <g id="g3690" transform="matrix(21.759 0 0 21.759 -7637.9 -9509)">
        <path id="path8064" transform="matrix(1 .029484 0 .97896 -80 -3.9067)" d="m451.19 442.97c-2.61 0.1-5.1 0.35-7.47 0.69-0.4 0.05-0.79 0.43-0.78 0.87l0.12 13.88c0.01 0.47 0.4 0.87 0.88 0.87h14.97c0.47 0 0.83-0.41 0.84-0.84v-0.03l0.53-14.38v-0.03c0-0.48-0.4-0.84-0.84-0.88-2.91-0.2-5.64-0.25-8.25-0.15z"/>
        <path id="rect8030" fill="#228b22" d="m364.01 444.32c4.59-0.64 9.56-0.92 15.19-0.52 0.22 0.01 0.39 0.17 0.39 0.39l-0.52 14.02c0.01 0.22-0.17 0.39-0.38 0.39h-14.54c-0.21 0-0.39-0.17-0.39-0.39l-0.13-13.5c0-0.22 0.17-0.36 0.38-0.39z"/>
        <path id="path7978" transform="matrix(1 0 .019712 1 -89.042 0)" d="m442.06 445.47l-0.06 0.03-3.41 0.28c-0.67 0.06-1.15 0.48-1.4 1.03-0.55 1.2-2.25 4.19-2.25 4.19-0.22 0.4-0.42 0.88-0.41 1.41l0.06 3.97h-0.34v0.03c-0.54 0.01-0.97 0.47-0.97 0.97v0.37c0 0.5 0.45 0.95 0.97 0.94h1.28c0.07 0 0.13-0.01 0.19-0.03 0.06 0 0.09 0.06 0.16 0.06l0.03-0.03 6.18-0.22c0.69 0 1.25-0.56 1.25-1.25v-10.47c0-0.69-0.59-1.28-1.28-1.28z"/>
        <path id="rect7967" d="m362.06 446.06l-3.4 0.28c-0.39 0.04-0.78 0.36-0.94 0.72-0.59 1.28-2.28 4.22-2.28 4.22-0.19 0.34-0.32 0.74-0.32 1.13l0.07 5.03c0 0.38 0.3 0.69 0.69 0.68l6.18-0.21c0.39 0 0.69-0.31 0.69-0.69v-10.47c0-0.39-0.3-0.69-0.69-0.69zm-7.81 10.91c-0.22 0-0.37 0.19-0.37 0.41v0.37c0 0.22 0.15 0.38 0.37 0.37l1.28-0.03c-0.34-0.04-0.62-0.3-0.62-0.65v-0.47h-0.66z" fill="#8b0000"/>
        <path id="path3666" d="m361.84 446.43l-3.32 0.27c-0.37 0.04-0.75 0.35-0.91 0.7-0.57 1.24-2.22 4.09-2.22 4.09-0.17 0.33-0.3 0.72-0.3 1.09l0.06 4.88c0 0.37 0.29 0.67 0.67 0.67l6.02-0.22c0.37 0 0.66-0.29 0.66-0.66v-10.15c0-0.38-0.29-0.67-0.66-0.67zm-7.6 10.57c-0.21 0.01-0.36 0.19-0.36 0.4v0.36c0 0.21 0.15 0.37 0.36 0.37l1.25-0.04c-0.33-0.04-0.61-0.29-0.61-0.63v-0.46h-0.64z" fill="url(#linearGradient2309)"/>
        <path id="rect7980" d="m355.16 455.03l0.03 1.91h1c0.21 0 0.4-0.19 0.4-0.41v-1.09c0-0.22-0.19-0.41-0.4-0.41h-1.03z" fill="#fff"/>
        <path id="rect7989" d="m357.78 446.97c-0.02 0.03-0.05 0.06-0.06 0.09-0.59 1.28-2.28 4.22-2.28 4.22-0.12 0.22-0.2 0.45-0.25 0.69h5.06c0.24 0 0.43-0.17 0.44-0.41l0.22-4.15c0.01-0.25-0.17-0.44-0.41-0.44h-2.72z"/>
        <path id="rect7987" d="m357.62 447.22c-0.63 1.34-2.18 4.06-2.18 4.06-0.08 0.14-0.14 0.28-0.19 0.44h4.81c0.22 0 0.4-0.16 0.41-0.38l0.19-3.75c0.01-0.21-0.16-0.37-0.38-0.37h-2.66z" fill="#fff"/>
        <path id="rect7994" d="m360.62 451.75c-0.08 0.13-0.21 0.22-0.37 0.22h-5.06c-0.03 0.14-0.07 0.29-0.07 0.44v0.06l5.1-0.16c0.22 0 0.39-0.16 0.4-0.37v-0.19z" fill="#ff8c00"/>
        <path id="rect7999" d="m360.43 453.42h1.2c0.17 0 0.31 0.13 0.31 0.3 0 0.16-0.14 0.3-0.31 0.3h-1.2c-0.17 0-0.31-0.14-0.31-0.3 0-0.17 0.14-0.3 0.31-0.3z"/>
        <path id="rect7982" d="m354.97 454.81v0.22h1.22c0.21 0 0.4 0.19 0.4 0.41v1.09c0 0.22-0.19 0.41-0.4 0.41h-1.22v0.22h1.53c0.22 0 0.41-0.19 0.41-0.41v-1.53c0-0.22-0.19-0.41-0.41-0.41h-1.53z"/>
        <path id="path3661" fill="url(#linearGradient2311)" d="m364.35 445.07c4.37-0.61 9.11-0.88 14.48-0.5 0.2 0.02 0.37 0.17 0.37 0.37l-0.49 13.29c0 0.2-0.17 0.37-0.37 0.37h-13.86c-0.21 0-0.38-0.17-0.38-0.37l-0.12-12.79c-0.01-0.21 0.16-0.35 0.37-0.37z"/>
        <path id="rect8045" d="m369.69 441.94c-0.22 0-0.4 0.16-0.41 0.37l-0.37 14.63c0.95 0.43 1.62 1.38 1.62 2.5 0 0.32-0.08 0.64-0.19 0.94h0.1c0.21 0 0.4-0.16 0.4-0.38l0.47-17.69c0.01-0.21-0.16-0.37-0.37-0.37h-1.25z"/>
        <path id="rect8033" d="m370.03 442.38c-0.22 0-0.4 0.15-0.41 0.37l-0.31 13.91c0.41 0.22 0.76 0.53 1.03 0.9l0.38-14.81c0-0.22-0.19-0.37-0.41-0.37h-0.28z" fill="#8b0000"/>
        <path id="path8043" d="m374.28 441.62c-0.17 0-0.32 0.05-0.44 0.13-0.11 0.08-0.18 0.19-0.18 0.31l-0.54 14.82c0.32-0.13 0.65-0.19 1-0.19 1.11 0 2.06 0.65 2.5 1.59l-1.18-16.25c-0.01-0.13-0.12-0.2-0.25-0.28-0.11-0.08-0.24-0.13-0.41-0.13h-0.5zm2.5 18.63c-0.11 0.37-0.31 0.71-0.56 1 0.34 0 0.61-0.2 0.59-0.44l-0.03-0.56z"/>
        <path id="rect8035" d="m374.44 442.19c-0.11 0-0.21 0.05-0.28 0.12-0.08 0.07-0.16 0.18-0.16 0.28l-0.44 13.72c0.18-0.03 0.37-0.09 0.56-0.09 0.58 0 1.13 0.17 1.6 0.44l-0.6-14.1c0-0.11-0.04-0.18-0.12-0.25-0.07-0.07-0.14-0.12-0.25-0.12h-0.31z" fill="#8b0000"/>
        <path id="path3686" transform="matrix(1 0 0 1.0054 20 -2.417)" fill="url(#linearGradient2313)" d="m341.84 446.59l-3.31 0.29c-0.3 0.02-0.64 0.29-0.78 0.59-0.58 1.25-2.22 4.09-2.22 4.09-0.17 0.32-0.28 0.7-0.28 1.03l0.06 4.88c0 0.3 0.2 0.5 0.5 0.5l6.03-0.22c0.31 0 0.5-0.2 0.5-0.5v-10.16c0-0.3-0.19-0.5-0.5-0.5zm-7.59 10.57c-0.13 0-0.22 0.11-0.22 0.25v0.34c0 0.13 0.09 0.22 0.22 0.22l0.69-0.03c-0.12-0.13-0.22-0.28-0.22-0.47v-0.31h-0.47z"/>
        <path id="path7949" style="color:#000000" transform="matrix(1.3309 0 0 1.3309 -225.86 -152.78)" d="m442.97 460.02a2.416 2.416 0 1 1 -4.83 0 2.416 2.416 0 1 1 4.83 0z"/>
        <path id="path7065" transform="matrix(1.1441 0 0 1.1441 -143.59 -66.874)" fill="#ff8c00" d="m442.97 460.02a2.416 2.416 0 1 1 -4.83 0 2.416 2.416 0 1 1 4.83 0z"/>
        <path id="path7944" d="m360.56 457.97c-0.77 0-1.4 0.64-1.4 1.41 0 0.76 0.63 1.37 1.4 1.37s1.38-0.61 1.38-1.37c0-0.77-0.61-1.41-1.38-1.41zm-0.09 0.28c0.66 0 1.19 0.53 1.19 1.19s-0.53 1.22-1.19 1.22-1.19-0.56-1.19-1.22 0.53-1.19 1.19-1.19z"/>
        <path id="path7942" transform="matrix(.49550 0 0 .49550 142.17 231.51)" fill="#1e90ff" d="m442.97 460.02a2.416 2.416 0 1 1 -4.83 0 2.416 2.416 0 1 1 4.83 0z"/>
        <path id="path7951" transform="matrix(1.3309 0 0 1.3309 -218.55 -152.78)" d="m442.97 460.02a2.416 2.416 0 1 1 -4.83 0 2.416 2.416 0 1 1 4.83 0z"/>
        <path id="path7953" transform="matrix(1.1441 0 0 1.1441 -136.28 -66.874)" fill="#ff8c00" d="m442.97 460.02a2.416 2.416 0 1 1 -4.83 0 2.416 2.416 0 1 1 4.83 0z"/>
        <path id="path7955" d="m367.87 457.97c-0.77 0-1.41 0.64-1.41 1.41 0 0.76 0.64 1.37 1.41 1.37s1.37-0.61 1.37-1.37c0-0.77-0.6-1.41-1.37-1.41zm-0.1 0.28c0.67 0 1.19 0.53 1.19 1.19s-0.52 1.22-1.19 1.22c-0.66 0-1.18-0.56-1.18-1.22s0.52-1.19 1.18-1.19z"/>
        <path id="path7957" transform="matrix(.49550 0 0 .49550 149.48 231.51)" fill="#1e90ff" d="m442.97 460.02a2.416 2.416 0 1 1 -4.83 0 2.416 2.416 0 1 1 4.83 0z"/>
        <path id="path7959" style="color:#000000" transform="matrix(1.3309 0 0 1.3309 -212.2 -152.78)" d="m442.97 460.02a2.416 2.416 0 1 1 -4.83 0 2.416 2.416 0 1 1 4.83 0z"/>
        <path id="path7961" transform="matrix(1.1441 0 0 1.1441 -129.93 -66.874)" fill="#ff8c00" d="m442.97 460.02a2.416 2.416 0 1 1 -4.83 0 2.416 2.416 0 1 1 4.83 0z"/>
        <path id="path7963" d="m374.22 457.97c-0.76 0-1.4 0.64-1.4 1.41 0 0.76 0.64 1.37 1.4 1.37 0.77 0 1.38-0.61 1.38-1.37 0-0.77-0.61-1.41-1.38-1.41zm-0.09 0.28c0.66 0 1.19 0.53 1.19 1.19s-0.53 1.22-1.19 1.22-1.19-0.56-1.19-1.22 0.53-1.19 1.19-1.19z"/>
        <path id="path7965" transform="matrix(.49550 0 0 .49550 155.84 231.51)" fill="#1e90ff" d="m442.97 460.02a2.416 2.416 0 1 1 -4.83 0 2.416 2.416 0 1 1 4.83 0z"/>
        <path id="path3670" transform="matrix(1.0046 0 0 1.0046 -82.195 -2.8514)" fill="url(#linearGradient2315)" d="m442.97 460.02a2.416 2.416 0 1 1 -4.83 0 2.416 2.416 0 1 1 4.83 0z"/>
        <path id="path3674" transform="matrix(1.0046 0 0 1.0046 -74.882 -2.8514)" fill="url(#linearGradient2315)" d="m442.97 460.02a2.416 2.416 0 1 1 -4.83 0 2.416 2.416 0 1 1 4.83 0z"/>
        <path id="path3678" transform="matrix(1.0046 0 0 1.0046 -68.57 -2.8514)" fill="url(#linearGradient2315)" d="m442.97 460.02a2.416 2.416 0 1 1 -4.83 0 2.416 2.416 0 1 1 4.83 0z"/>
      </g>
    </g>
  </g>
  <metadata>
    <rdf:RDF>
      <cc:Work>
        <dc:format>image/svg+xml</dc:format>
        <dc:type rdf:resource="http://purl.org/dc/dcmitype/StillImage"/>
        <cc:license rdf:resource="http://creativecommons.org/licenses/publicdomain/"/>
        <dc:publisher>
          <cc:Agent rdf:about="http://openclipart.org/">
            <dc:title>Openclipart</dc:title>
          </cc:Agent>
        </dc:publisher>
        <dc:title>Car Toy</dc:title>
        <dc:date>2007-08-14T12:21:03</dc:date>
        <dc:description>car, car, clip art, clipart, image, kid, kid, media, png, public domain, svg, toy, toy, truck, truck, </dc:description>
        <dc:source>http://openclipart.org/detail/4805/car-toy-by-jonata</dc:source>
        <dc:creator>
          <cc:Agent>
            <dc:title>jonata</dc:title>
          </cc:Agent>
        </dc:creator>
        <dc:subject>
          <rdf:Bag>
            <rdf:li>car</rdf:li>
            <rdf:li>clip art</rdf:li>
            <rdf:li>clipart</rdf:li>
            <rdf:li>image</rdf:li>
            <rdf:li>kid</rdf:li>
            <rdf:li>media</rdf:li>
            <rdf:li>png</rdf:li>
            <rdf:li>public domain</rdf:li>
            <rdf:li>svg</rdf:li>
            <rdf:li>toy</rdf:li>
            <rdf:li>truck</rdf:li>
          </rdf:Bag>
        </dc:subject>
      </cc:Work>
      <cc:License rdf:about="http://creativecommons.org/licenses/publicdomain/">
        <cc:permits rdf:resource="http://creativecommons.org/ns#Reproduction"/>
        <cc:permits rdf:resource="http://creativecommons.org/ns#Distribution"/>
        <cc:permits rdf:resource="http://creativecommons.org/ns#DerivativeWorks"/>
      </cc:License>
    </rdf:RDF>
  </metadata>
</svg>
