<?xml version="1.0" standalone="no"?>
<!DOCTYPE svg PUBLIC "-//W3C//DTD SVG 20010904//EN"
 "http://www.w3.org/TR/2001/REC-SVG-20010904/DTD/svg10.dtd">
<svg version="1.0" xmlns="http://www.w3.org/2000/svg"
 width="1280.000000pt" height="1028.000000pt" viewBox="0 0 1280.000000 1028.000000"
 preserveAspectRatio="xMidYMid meet">
<metadata>
Created by potrace 1.15, written by Peter Selinger 2001-2017
</metadata>
<g transform="translate(0.000000,1028.000000) scale(0.100000,-0.100000)"
fill="#4caf50" stroke="none">
<path d="M5380 10265 c-52 -7 -137 -23 -189 -35 -89 -21 -104 -29 -234 -118
-143 -97 -265 -157 -677 -329 -1129 -472 -2062 -749 -2713 -804 -219 -19 -747
11 -987 56 -153 29 -151 29 -235 0 -329 -109 -402 -407 -203 -827 l51 -107 76
-18 c57 -13 115 -18 231 -17 139 0 164 3 243 27 108 33 165 62 282 140 220
148 589 278 1029 363 157 30 163 28 173 -43 11 -87 -75 -180 -242 -263 -55
-27 -226 -92 -380 -144 -154 -52 -352 -125 -440 -161 -370 -154 -426 -170
-645 -180 -205 -10 -288 -36 -377 -118 -84 -77 -130 -188 -140 -333 -7 -106 4
-150 75 -287 86 -169 194 -253 322 -251 79 1 106 12 310 131 177 103 765 425
842 461 4 2 -2 -21 -12 -50 -49 -140 -51 -308 -6 -439 14 -41 27 -78 28 -84 6
-23 -244 -121 -419 -164 -113 -28 -236 -52 -334 -66 -90 -12 -246 -131 -289
-221 -24 -48 -26 -130 -6 -179 21 -49 98 -128 177 -181 81 -54 236 -127 301
-143 247 -59 598 114 1003 493 l110 103 70 7 c237 25 729 124 1212 245 111 28
206 51 211 51 6 0 -1 -26 -13 -57 -67 -166 -135 -447 -160 -662 -18 -148 -20
-474 -5 -616 31 -283 96 -537 204 -798 20 -48 36 -91 36 -95 0 -4 -21 -18 -46
-32 -69 -36 -257 -163 -354 -239 -254 -197 -415 -407 -450 -586 -28 -146 -23
-849 10 -1271 9 -119 9 -122 -25 -250 -69 -260 -181 -553 -276 -719 -23 -41
-70 -110 -104 -153 -86 -109 -117 -155 -163 -247 -81 -163 -117 -327 -110
-502 4 -91 9 -117 32 -166 59 -123 168 -114 303 25 48 50 54 61 93 188 59 194
120 373 196 576 72 195 85 224 108 243 29 24 39 -23 40 -189 1 -106 -5 -199
-19 -295 -15 -104 -20 -195 -20 -355 0 -197 2 -221 23 -289 19 -61 32 -83 75
-125 156 -155 358 -64 431 194 49 178 16 376 -104 617 -70 140 -81 189 -82
379 -2 190 36 242 129 174 53 -39 139 -146 237 -293 57 -86 80 -130 95 -187
44 -161 52 -229 52 -429 0 -287 28 -413 115 -510 78 -87 177 -103 297 -48 76
35 122 79 159 155 29 59 33 77 36 168 6 142 -15 234 -100 439 -115 279 -223
518 -269 591 -73 119 -88 148 -97 190 -13 59 5 97 57 117 53 22 219 22 351 2
360 -56 670 55 670 238 0 81 -52 140 -162 184 -109 44 -181 55 -416 60 -328 8
-565 -20 -657 -77 l-33 -20 -31 127 c-143 597 -218 1107 -182 1240 26 94 163
234 411 419 l125 94 45 -53 c285 -330 567 -555 926 -738 542 -276 1184 -372
1794 -269 675 115 1307 478 1732 996 l60 73 71 -51 c169 -120 279 -209 378
-308 118 -117 136 -144 150 -233 23 -141 -42 -580 -163 -1097 -22 -96 -43
-187 -46 -202 -2 -16 -6 -28 -8 -28 -1 0 -18 9 -37 20 -95 56 -239 75 -577 75
-274 0 -321 -4 -443 -40 -107 -31 -196 -102 -213 -172 -25 -98 90 -212 261
-260 83 -23 284 -28 408 -9 126 19 283 21 339 4 48 -14 78 -50 78 -93 0 -34
-38 -115 -106 -225 -74 -120 -322 -697 -349 -812 -35 -154 -28 -293 20 -387
63 -125 227 -206 351 -172 59 16 119 72 154 145 52 111 62 177 65 426 3 388
40 499 255 780 124 161 201 206 237 137 22 -43 29 -198 14 -325 -11 -87 -19
-110 -76 -227 -83 -168 -115 -278 -122 -415 -6 -123 10 -207 57 -300 126 -250
402 -215 477 60 25 91 23 381 -3 580 -12 93 -19 205 -19 310 0 219 11 257 54
186 41 -66 321 -860 321 -911 0 -22 79 -103 141 -144 109 -73 185 -50 229 67
80 211 -9 580 -197 824 -181 235 -268 410 -383 775 -86 267 -84 250 -66 568
32 586 28 1036 -10 1165 -71 241 -339 507 -772 766 -70 42 -128 78 -130 79 -1
1 11 31 27 66 95 212 168 479 207 760 21 152 24 527 5 669 -35 268 -91 492
-173 699 -16 40 -27 75 -26 77 2 1 138 -31 303 -72 694 -174 1081 -255 1353
-284 l94 -10 106 -100 c279 -260 540 -429 754 -487 39 -11 98 -18 158 -18 87
1 103 4 185 38 183 76 334 186 381 278 30 61 32 136 4 194 -43 90 -195 209
-279 220 -252 34 -512 104 -688 186 l-83 37 21 46 c28 64 49 168 49 249 0 72
-23 200 -45 255 -8 17 -12 32 -9 32 14 0 652 -350 869 -476 188 -109 254 -132
339 -114 133 27 253 168 325 378 52 154 1 373 -114 481 -99 94 -168 115 -415
131 -214 13 -226 16 -645 190 -55 23 -224 83 -375 135 -374 127 -482 176 -584
265 -70 62 -96 153 -58 200 18 22 21 22 88 11 110 -19 329 -69 449 -102 302
-85 467 -156 670 -288 240 -157 456 -194 758 -131 l54 11 51 107 c58 125 77
179 97 286 36 186 3 318 -105 427 -62 62 -153 112 -237 129 -46 10 -71 9 -137
-3 -169 -33 -336 -50 -666 -68 -212 -12 -310 -8 -515 16 -678 82 -1691 403
-2822 896 -241 105 -290 130 -423 219 -135 90 -158 102 -232 119 -230 54 -464
64 -571 26 -254 -91 -145 -394 319 -886 355 -375 1230 -1210 1452 -1383 34
-27 61 -50 60 -52 -2 -1 -163 -8 -359 -14 l-355 -13 -62 50 c-105 85 -220 164
-358 248 -84 51 -167 112 -230 169 -292 263 -605 485 -855 606 -323 156 -540
146 -904 -40 -304 -155 -716 -461 -1055 -786 -41 -39 -119 -105 -172 -146
l-98 -75 -147 4 c-82 3 -197 8 -257 12 l-109 6 64 50 c161 124 382 328 897
829 574 558 741 737 881 951 90 135 125 220 125 306 1 55 -3 72 -26 106 -61
93 -225 123 -478 88z"/>
</g>
</svg>
