<svg width="680" height="528" xmlns="http://www.w3.org/2000/svg" preserveAspectRatio="xMidYMid meet" version="1.0">
 <metadata>Created by potrace 1.15, written by Peter Selinger 2001-2017</metadata>

 <g>
  <title>Layer 1</title>
  <g id="svg_1" fill="#8bc34a" transform="rotate(-180, 640.028, 513.981) translate(0, 1028) scale(0.1, -0.1)">
   <path id="svg_2" d="m5380,10265c-52,-7 -137,-23 -189,-35c-89,-21 -104,-29 -234,-118c-143,-97 -265,-157 -677,-329c-1129,-472 -2062,-749 -2713,-804c-219,-19 -747,11 -987,56c-153,29 -151,29 -235,0c-329,-109 -402,-407 -203,-827l51,-107l76,-18c57,-13 115,-18 231,-17c139,0 164,3 243,27c108,33 165,62 282,140c220,148 589,278 1029,363c157,30 163,28 173,-43c11,-87 -75,-180 -242,-263c-55,-27 -226,-92 -380,-144c-154,-52 -352,-125 -440,-161c-370,-154 -426,-170 -645,-180c-205,-10 -288,-36 -377,-118c-84,-77 -130,-188 -140,-333c-7,-106 4,-150 75,-287c86,-169 194,-253 322,-251c79,1 106,12 310,131c177,103 765,425 842,461c4,2 -2,-21 -12,-50c-49,-140 -51,-308 -6,-439c14,-41 27,-78 28,-84c6,-23 -244,-121 -419,-164c-113,-28 -236,-52 -334,-66c-90,-12 -246,-131 -289,-221c-24,-48 -26,-130 -6,-179c21,-49 98,-128 177,-181c81,-54 236,-127 301,-143c247,-59 598,114 1003,493l110,103l70,7c237,25 729,124 1212,245c111,28 206,51 211,51c6,0 -1,-26 -13,-57c-67,-166 -135,-447 -160,-662c-18,-148 -20,-474 -5,-616c31,-283 96,-537 204,-798c20,-48 36,-91 36,-95c0,-4 -21,-18 -46,-32c-69,-36 -257,-163 -354,-239c-254,-197 -415,-407 -450,-586c-28,-146 -23,-849 10,-1271c9,-119 9,-122 -25,-250c-69,-260 -181,-553 -276,-719c-23,-41 -70,-110 -104,-153c-86,-109 -117,-155 -163,-247c-81,-163 -117,-327 -110,-502c4,-91 9,-117 32,-166c59,-123 168,-114 303,25c48,50 54,61 93,188c59,194 120,373 196,576c72,195 85,224 108,243c29,24 39,-23 40,-189c1,-106 -5,-199 -19,-295c-15,-104 -20,-195 -20,-355c0,-197 2,-221 23,-289c19,-61 32,-83 75,-125c156,-155 358,-64 431,194c49,178 16,376 -104,617c-70,140 -81,189 -82,379c-2,190 36,242 129,174c53,-39 139,-146 237,-293c57,-86 80,-130 95,-187c44,-161 52,-229 52,-429c0,-287 28,-413 115,-510c78,-87 177,-103 297,-48c76,35 122,79 159,155c29,59 33,77 36,168c6,142 -15,234 -100,439c-115,279 -223,518 -269,591c-73,119 -88,148 -97,190c-13,59 5,97 57,117c53,22 219,22 351,2c360,-56 670,55 670,238c0,81 -52,140 -162,184c-109,44 -181,55 -416,60c-328,8 -565,-20 -657,-77l-33,-20l-31,127c-143,597 -218,1107 -182,1240c26,94 163,234 411,419l125,94l45,-53c285,-330 567,-555 926,-738c542,-276 1184,-372 1794,-269c675,115 1307,478 1732,996l60,73l71,-51c169,-120 279,-209 378,-308c118,-117 136,-144 150,-233c23,-141 -42,-580 -163,-1097c-22,-96 -43,-187 -46,-202c-2,-16 -6,-28 -8,-28c-1,0 -18,9 -37,20c-95,56 -239,75 -577,75c-274,0 -321,-4 -443,-40c-107,-31 -196,-102 -213,-172c-25,-98 90,-212 261,-260c83,-23 284,-28 408,-9c126,19 283,21 339,4c48,-14 78,-50 78,-93c0,-34 -38,-115 -106,-225c-74,-120 -322,-697 -349,-812c-35,-154 -28,-293 20,-387c63,-125 227,-206 351,-172c59,16 119,72 154,145c52,111 62,177 65,426c3,388 40,499 255,780c124,161 201,206 237,137c22,-43 29,-198 14,-325c-11,-87 -19,-110 -76,-227c-83,-168 -115,-278 -122,-415c-6,-123 10,-207 57,-300c126,-250 402,-215 477,60c25,91 23,381 -3,580c-12,93 -19,205 -19,310c0,219 11,257 54,186c41,-66 321,-860 321,-911c0,-22 79,-103 141,-144c109,-73 185,-50 229,67c80,211 -9,580 -197,824c-181,235 -268,410 -383,775c-86,267 -84,250 -66,568c32,586 28,1036 -10,1165c-71,241 -339,507 -772,766c-70,42 -128,78 -130,79c-1,1 11,31 27,66c95,212 168,479 207,760c21,152 24,527 5,669c-35,268 -91,492 -173,699c-16,40 -27,75 -26,77c2,1 138,-31 303,-72c694,-174 1081,-255 1353,-284l94,-10l106,-100c279,-260 540,-429 754,-487c39,-11 98,-18 158,-18c87,1 103,4 185,38c183,76 334,186 381,278c30,61 32,136 4,194c-43,90 -195,209 -279,220c-252,34 -512,104 -688,186l-83,37l21,46c28,64 49,168 49,249c0,72 -23,200 -45,255c-8,17 -12,32 -9,32c14,0 652,-350 869,-476c188,-109 254,-132 339,-114c133,27 253,168 325,378c52,154 1,373 -114,481c-99,94 -168,115 -415,131c-214,13 -226,16 -645,190c-55,23 -224,83 -375,135c-374,127 -482,176 -584,265c-70,62 -96,153 -58,200c18,22 21,22 88,11c110,-19 329,-69 449,-102c302,-85 467,-156 670,-288c240,-157 456,-194 758,-131l54,11l51,107c58,125 77,179 97,286c36,186 3,318 -105,427c-62,62 -153,112 -237,129c-46,10 -71,9 -137,-3c-169,-33 -336,-50 -666,-68c-212,-12 -310,-8 -515,16c-678,82 -1691,403 -2822,896c-241,105 -290,130 -423,219c-135,90 -158,102 -232,119c-230,54 -464,64 -571,26c-254,-91 -145,-394 319,-886c355,-375 1230,-1210 1452,-1383c34,-27 61,-50 60,-52c-2,-1 -163,-8 -359,-14l-355,-13l-62,50c-105,85 -220,164 -358,248c-84,51 -167,112 -230,169c-292,263 -605,485 -855,606c-323,156 -540,146 -904,-40c-304,-155 -716,-461 -1055,-786c-41,-39 -119,-105 -172,-146l-98,-75l-147,4c-82,3 -197,8 -257,12l-109,6l64,50c161,124 382,328 897,829c574,558 741,737 881,951c90,135 125,220 125,306c1,55 -3,72 -26,106c-61,93 -225,123 -478,88z"/>
  </g>
 </g>
</svg>