<?xml version="1.0" encoding="UTF-8" standalone="no"?>
<!-- Creator: CorelDRAW -->

<svg
   xmlns:dc="http://purl.org/dc/elements/1.1/"
   xmlns:cc="http://creativecommons.org/ns#"
   xmlns:rdf="http://www.w3.org/1999/02/22-rdf-syntax-ns#"
   xmlns:svg="http://www.w3.org/2000/svg"
   xmlns="http://www.w3.org/2000/svg"
   xmlns:sodipodi="http://sodipodi.sourceforge.net/DTD/sodipodi-0.dtd"
   xmlns:inkscape="http://www.inkscape.org/namespaces/inkscape"
   xml:space="preserve"
   width="40.058304mm"
   height="26.883595mm"
   style="clip-rule:evenodd;fill-rule:evenodd;image-rendering:optimizeQuality;shape-rendering:geometricPrecision;text-rendering:geometricPrecision"
   viewBox="0 0 40.058304 26.883594"
   id="svg2"
   version="1.1"
   inkscape:version="0.92.3 (2405546, 2018-03-11)"
   sodipodi:docname="car-7.svg"><metadata
     id="metadata525"><rdf:RDF><cc:Work
         rdf:about=""><dc:format>image/svg+xml</dc:format><dc:type
           rdf:resource="http://purl.org/dc/dcmitype/StillImage" /><dc:title></dc:title></cc:Work></rdf:RDF></metadata><sodipodi:namedview
     pagecolor="#ffffff"
     bordercolor="#666666"
     borderopacity="1"
     objecttolerance="10"
     gridtolerance="10"
     guidetolerance="10"
     inkscape:pageopacity="0"
     inkscape:pageshadow="2"
     inkscape:window-width="1920"
     inkscape:window-height="1017"
     id="namedview523"
     showgrid="false"
     inkscape:zoom="0.78395062"
     inkscape:cx="153.5293"
     inkscape:cy="239.15881"
     inkscape:current-layer="svg2"
     fit-margin-top="0"
     fit-margin-left="0"
     fit-margin-right="0"
     fit-margin-bottom="0"
     showborder="false"
     inkscape:window-x="-4"
     inkscape:window-y="9"
     inkscape:window-maximized="1" /><defs
     id="defs4"><style
       type="text/css"
       id="style6"><![CDATA[
    .str0 {stroke:#1F1A17;stroke-width:0.0762}
    .str6 {stroke:black;stroke-width:0.0762}
    .str2 {stroke:#191919;stroke-width:0.0762}
    .str5 {stroke:#1F1A17;stroke-width:0.8;stroke-linecap:round;stroke-linejoin:round}
    .str1 {stroke:#1F1A17;stroke-width:0.9;stroke-linecap:round;stroke-linejoin:round}
    .str3 {stroke:#1F1A17;stroke-width:1.5;stroke-linecap:round;stroke-linejoin:round}
    .str4 {stroke:#1F1A17;stroke-width:0.828;stroke-linecap:round;stroke-linejoin:round}
    .fil51 {fill:none}
    .fil24 {fill:#00923F}
    .fil63 {fill:#1F1A17}
    .fil58 {fill:#28166F}
    .fil52 {fill:#495677}
    .fil60 {fill:#667AB3}
    .fil53 {fill:#72706F}
    .fil57 {fill:#75C5F0}
    .fil62 {fill:#7BC4A0}
    .fil1 {fill:#AAA9A9}
    .fil2 {fill:#ADACAB}
    .fil3 {fill:#B1B0AF}
    .fil4 {fill:#B4B3B2}
    .fil5 {fill:#B6B5B4}
    .fil50 {fill:#B6DDC7}
    .fil6 {fill:#BABAB9}
    .fil7 {fill:#BDBDBC}
    .fil8 {fill:#C2C1C1}
    .fil9 {fill:#C5C5C4}
    .fil10 {fill:#CACAC9}
    .fil11 {fill:#CDCCCC}
    .fil12 {fill:#D0CFCF}
    .fil13 {fill:#D5D4D4}
    .fil14 {fill:#D8D7D7}
    .fil66 {fill:#DA251D}
    .fil15 {fill:#DEDEDD}
    .fil16 {fill:#E2E1E1}
    .fil17 {fill:#E8E8E7}
    .fil18 {fill:#ECECEB}
    .fil59 {fill:#EF9A48}
    .fil61 {fill:#EF9BA0}
    .fil19 {fill:#F2F2F2}
    .fil20 {fill:whitesmoke}
    .fil21 {fill:#F9F9F9}
    .fil54 {fill:#FFF500}
    .fil22 {fill:white}
    .fil56 {fill:black}
    .fil23 {fill:blue}
    .fil64 {fill:#030303}
    .fil47 {fill:#191919}
    .fil39 {fill:#333300}
    .fil30 {fill:#333333}
    .fil44 {fill:#663300}
    .fil27 {fill:#666666}
    .fil28 {fill:#6666FF}
    .fil49 {fill:#669966}
    .fil34 {fill:#7F7F7F}
    .fil33 {fill:#990000}
    .fil45 {fill:#996699}
    .fil38 {fill:#B2B2B2}
    .fil55 {fill:#CC6633}
    .fil40 {fill:#CC9933}
    .fil37 {fill:#CCCC33}
    .fil25 {fill:#CCCCCC}
    .fil48 {fill:#CCCCFF}
    .fil31 {fill:#E5E5E5}
    .fil26 {fill:red}
    .fil42 {fill:#FF6600}
    .fil35 {fill:#FF9933}
    .fil36 {fill:#FF9966}
    .fil65 {fill:#FFCC00}
    .fil43 {fill:#FFCCCC}
    .fil32 {fill:yellow}
    .fil46 {fill:#FFFF66}
    .fil0 {fill:#FFFFCC}
    .fil41 {fill:#FFFFF2}
    .fil29 {fill:white}
   ]]></style></defs><g
     id="g920"
     transform="translate(-1.2738,-32.339193)"><rect
       class="fil23 str0"
       x="19.290899"
       y="32.377293"
       width="2.5087199"
       height="3.7630799"
       rx="2.4319999"
       ry="2.4319999"
       id="rect39"
       style="fill:#0000ff;stroke:#1f1a17;stroke-width:0.0762" /><polygon
       transform="translate(-59.5919,-125.4797)"
       class="fil24 str0"
       points="78.801,160.303 81.536,160.303 82.2068,162.059 78.1302,162.059 "
       id="polygon41"
       style="fill:#00923f;stroke:#1f1a17;stroke-width:0.0762" /><rect
       class="fil27 str0"
       transform="matrix(1,0,-0.19592501,0.98061888,0,0)"
       width="1.525432"
       height="1.1581069"
       id="rect402"
       x="49.69162"
       y="50.560204"
       style="fill:#666666;stroke:#1f1a17;stroke-width:0.0352167" /><rect
       class="fil27 str0"
       transform="matrix(1,0,-0.19592501,0.98061888,0,0)"
       width="1.525432"
       height="1.1581069"
       id="rect404"
       x="49.368744"
       y="48.91227"
       style="fill:#666666;stroke:#1f1a17;stroke-width:0.0352167" /><polygon
       transform="translate(-59.5919,-125.4797)"
       class="fil28 str0"
       points="98.3305,171.632 69.8231,171.632 75.9548,162.003 93.4252,162.003 "
       id="polygon406"
       style="fill:#6666ff;stroke:#1f1a17;stroke-width:0.0762" /><path
       class="fil24 str0"
       d="m 15.924,36.2903 h 18.3475 c 0.1302,0 0.2366,0.1064 0.2366,0.2366 v 0.364 c 0,0.1302 -0.1064,0.2367 -0.2366,0.2367 h -1.8379 l 2.6019,8.4769 h -0.9879 l -2.6019,-8.4769 h -7.4746 l -0.6394,8.2902 h -0.9879 l 0.6394,-8.2902 H 15.924 c -0.1301,0 -0.2366,-0.1065 -0.2366,-0.2367 v -0.364 c 0,-0.1302 0.1065,-0.2366 0.2366,-0.2366 z"
       id="path408"
       inkscape:connector-curvature="0"
       style="fill:#00923f;stroke:#1f1a17;stroke-width:0.0762" /><rect
       class="fil24 str0"
       x="1.6468021"
       y="44.441303"
       width="38.307598"
       height="10.4652"
       rx="4.4154"
       ry="4.4154"
       id="rect410"
       style="fill:#00923f;stroke:#1f1a17;stroke-width:0.0762" /><path
       class="fil29"
       d="m 16.8731,53.5503 c 0,0.6126 -0.0863,1.2056 -0.2474,1.7677 H 4.2393 C 4.0782,54.7559 3.9917,54.1629 3.9917,53.5504 c -10e-5,-3.5472 2.8936,-6.4409 6.4406,-6.4408 3.5472,0 6.4409,2.8936 6.4408,6.4407 z"
       id="path412"
       inkscape:connector-curvature="0"
       style="fill:#ffffff" /><circle
       class="fil30 str0"
       cx="10.432401"
       cy="53.550297"
       r="5.6343899"
       id="circle414"
       style="fill:#333333;stroke:#1f1a17;stroke-width:0.0762" /><circle
       class="fil31 str0"
       cx="11.150205"
       cy="54.268299"
       r="2.6470301"
       id="circle416"
       style="fill:#e5e5e5;stroke:#1f1a17;stroke-width:0.0762" /><circle
       class="fil26 str0"
       cx="10.432401"
       cy="53.550297"
       r="1.09663"
       id="circle418"
       style="fill:#ff0000;stroke:#1f1a17;stroke-width:0.0762" /><path
       class="fil29"
       d="m 40.3158,53.5503 c 0,0.6127 -0.0863,1.2056 -0.2474,1.7677 H 39.6195 39.3978 27.6819 c -0.1611,-0.5621 -0.2476,-1.1551 -0.2476,-1.7677 0,-3.5471 2.8936,-6.4407 6.4407,-6.4407 3.5471,0 6.4408,2.8936 6.4408,6.4407 z"
       id="path420"
       inkscape:connector-curvature="0"
       style="fill:#ffffff" /><circle
       class="fil30 str0"
       cx="33.875004"
       cy="53.550297"
       r="5.6343899"
       id="circle422"
       style="fill:#333333;stroke:#1f1a17;stroke-width:0.0762" /><circle
       class="fil31 str0"
       cx="34.592899"
       cy="54.268299"
       r="2.6470301"
       id="circle424"
       style="fill:#e5e5e5;stroke:#1f1a17;stroke-width:0.0762" /><circle
       class="fil26 str0"
       cx="33.875004"
       cy="53.550297"
       r="1.09663"
       id="circle426"
       style="fill:#ff0000;stroke:#1f1a17;stroke-width:0.0762" /><path
       class="fil53 str0"
       d="m 33.875,46.8573 c 3.6858,0 6.6926,3.0068 6.6926,6.6926 0,0.6041 -0.0814,1.1897 -0.2327,1.7471 h -0.6524 c 0.1673,-0.5537 0.2578,-1.1401 0.2578,-1.7471 0,-3.3403 -2.7249,-6.0653 -6.0653,-6.0653 -3.3403,0 -6.0653,2.725 -6.0653,6.0653 0,0.607 0.0905,1.1934 0.2578,1.7471 H 27.7026 27.4151 16.8923 16.2399 c 0.1673,-0.5537 0.2578,-1.1401 0.2578,-1.7471 0,-3.3403 -2.725,-6.0653 -6.0653,-6.0653 -3.3404,0 -6.0654,2.725 -6.0654,6.0653 0,0.607 0.0906,1.1934 0.2579,1.7471 H 3.9724 C 3.8211,54.7396 3.7398,54.154 3.7398,53.5499 c 0,-3.6858 3.0068,-6.6926 6.6926,-6.6926 3.6858,0 6.6926,3.0068 6.6926,6.6926 0,0.405 -0.0368,0.8014 -0.1065,1.1868 h 10.2703 c -0.0696,-0.3854 -0.1064,-0.7818 -0.1064,-1.1868 0,-3.6858 3.0068,-6.6926 6.6926,-6.6926 z"
       id="path428"
       inkscape:connector-curvature="0"
       style="fill:#72706f;stroke:#1f1a17;stroke-width:0.0762" /><path
       class="fil32 str0"
       d="m 1.3119,51.6623 v 1.5774 c 0.871,0 1.5774,-0.7064 1.5774,-1.5774 0,-0.871 -0.7064,-1.5774 -1.5774,-1.5774 z"
       id="path430"
       inkscape:connector-curvature="0"
       style="fill:#ffff00;stroke:#1f1a17;stroke-width:0.0762" /></g></svg>