<?xml version="1.0" encoding="UTF-8" standalone="no"?>
<!-- Created with Inkscape (http://www.inkscape.org/) -->

<svg
   xmlns:dc="http://purl.org/dc/elements/1.1/"
   xmlns:cc="http://creativecommons.org/ns#"
   xmlns:rdf="http://www.w3.org/1999/02/22-rdf-syntax-ns#"
   xmlns:svg="http://www.w3.org/2000/svg"
   xmlns="http://www.w3.org/2000/svg"
   xmlns:sodipodi="http://sodipodi.sourceforge.net/DTD/sodipodi-0.dtd"
   xmlns:inkscape="http://www.inkscape.org/namespaces/inkscape"
   width="172.48109"
   height="95.109886"
   id="svg2"
   sodipodi:version="0.32"
   inkscape:version="0.92.3 (2405546, 2018-03-11)"
   sodipodi:docname="car-19.svg"
   inkscape:output_extension="org.inkscape.output.svg.inkscape"
   version="1.0"
   style="display:inline"
   inkscape:export-filename="C:\Dokumente und Einstellungen\Klaus\desktop\Apuan.png"
   inkscape:export-xdpi="149.99368"
   inkscape:export-ydpi="149.99368">
  <sodipodi:namedview
     id="base"
     pagecolor="#ffffff"
     bordercolor="#666666"
     borderopacity="1.0"
     gridtolerance="10000"
     guidetolerance="14"
     objecttolerance="10"
     inkscape:pageopacity="0.0"
     inkscape:pageshadow="2"
     inkscape:zoom="8.3487411"
     inkscape:cx="86.240547"
     inkscape:cy="47.554943"
     inkscape:document-units="px"
     inkscape:current-layer="layer1"
     showgrid="false"
     showguides="true"
     inkscape:guide-bbox="true"
     inkscape:object-nodes="true"
     units="cm"
     inkscape:window-width="1920"
     inkscape:window-height="1017"
     inkscape:window-x="-4"
     inkscape:window-y="9"
     inkscape:window-maximized="1"
     fit-margin-top="0"
     fit-margin-left="0"
     fit-margin-right="0"
     fit-margin-bottom="0"
     showborder="false" />
  <defs
     id="defs4" />
  <metadata
     id="metadata7">
    <rdf:RDF>
      <cc:Work
         rdf:about="">
        <dc:format>image/svg+xml</dc:format>
        <dc:type
           rdf:resource="http://purl.org/dc/dcmitype/StillImage" />
        <dc:title></dc:title>
      </cc:Work>
    </rdf:RDF>
  </metadata>
  <g
     style="display:inline"
     id="layer1"
     inkscape:groupmode="layer"
     inkscape:label="Bilder"
     transform="translate(-335.89983,-1007.7053)">
    <g
       transform="translate(79.243924,410.27047)"
       sodipodi:insensitive="true"
       style="display:none"
       inkscape:label="Temp"
       id="layer2">
      <path
         sodipodi:nodetypes="ccccc"
         id="rect2383"
         d="M 192.31387,241.12966 500.81741,139.91982 491.80269,459.14459 184.30079,417.14163 Z"
         style="opacity:0.5497835;fill:#ff0000;fill-opacity:1;stroke:#000000;stroke-width:1.01481223;stroke-linecap:round;stroke-linejoin:round;stroke-miterlimit:4;stroke-opacity:1"
         transform="matrix(0.9710209,0.2389946,0,1,0,0)"
         inkscape:connector-curvature="0" />
      <path
         style="opacity:0.5497835;fill:#ff0000;fill-opacity:1;stroke:#000000;stroke-width:0.99999994;stroke-linecap:round;stroke-linejoin:round;stroke-miterlimit:4;stroke-opacity:1"
         d="M 617.91463,317.24249 486.26172,260.26338 477.55069,576.6828 622.44192,350.31117 Z"
         id="path3158"
         sodipodi:nodetypes="ccccc"
         inkscape:connector-curvature="0" />
      <path
         transform="matrix(0.9710209,0.2389946,0,1,0,0)"
         style="opacity:0.5497835;fill:#ff0000;fill-opacity:1;stroke:#000000;stroke-width:1.01481223;stroke-linecap:round;stroke-linejoin:round;stroke-miterlimit:4;stroke-opacity:1"
         d="M 192.31387,241.12966 500.81741,139.91982 509.83212,-40.221971 236.3858,75.951988 Z"
         id="path3160"
         sodipodi:nodetypes="ccccc"
         inkscape:connector-curvature="0" />
      <path
         transform="matrix(0.9710209,0.2389946,0,1,0,0)"
         sodipodi:nodetypes="ccccc"
         id="path3162"
         d="M 636.35564,165.15693 500.81741,139.91982 509.83212,-40.221971 632.03154,129.23125 Z"
         style="opacity:0.5497835;fill:#ff0000;fill-opacity:1;stroke:#000000;stroke-width:1.01481223;stroke-linecap:round;stroke-linejoin:round;stroke-miterlimit:4;stroke-opacity:1"
         inkscape:connector-curvature="0" />
    </g>
    <g
       transform="matrix(-0.56232836,-2.9539153e-4,-2.3457602e-4,0.56228432,771.06252,893.63199)"
       id="g4124">
      <path
         style="fill:#808080;fill-opacity:1;stroke:#000000;stroke-width:5.33516884;stroke-linecap:round;stroke-linejoin:round;stroke-miterlimit:4;stroke-opacity:1"
         d="m 469.66101,332.14383 27.39109,-6.81675 1.73175,4.31333 -24.87617,16.72403 z"
         id="path4098"
         sodipodi:nodetypes="ccccc"
         inkscape:connector-curvature="0" />
      <path
         sodipodi:nodetypes="ccccc"
         id="path4100"
         d="m 477.73602,297.38476 c -7.65906,2.65909 -6.76162,20.33908 1.30578,21.33643 2.60633,-0.1595 4.5555,-2.72357 4.37034,-5.74902 l -0.63734,-10.41422 c -0.18516,-3.02546 -2.43246,-5.33271 -5.03878,-5.17319 z"
         style="fill:#ff0000;fill-opacity:1;stroke:#000000;stroke-width:5.33517075;stroke-linecap:round;stroke-linejoin:round;stroke-miterlimit:4;stroke-opacity:1"
         inkscape:connector-curvature="0" />
      <path
         style="fill:#5555ff;fill-opacity:1;stroke:#000000;stroke-width:5.33516979;stroke-linecap:round;stroke-linejoin:round;stroke-miterlimit:4;stroke-opacity:1"
         d="m 496.35244,338.97629 h 243.125 c 84.04404,-66.46077 -19.53997,-97.45176 -79.51684,-90.69264 -58.146,-94.4332 -245.27651,-16.64385 -163.60816,90.69264 z"
         id="path4102"
         sodipodi:nodetypes="cccc"
         inkscape:connector-curvature="0" />
      <path
         style="fill:#2c5aa0;fill-opacity:1;stroke:#000000;stroke-width:5.33516932;stroke-linecap:round;stroke-linejoin:round;stroke-miterlimit:4;stroke-dasharray:none;stroke-opacity:1"
         d="m 483.32475,318.77366 c -7.47361,0.78565 -1.75996,23.05981 5.30986,24.20263 75.44784,-4.74284 178.8221,-2.54236 264.68235,0.72744 15.68376,0.82954 15.30973,-15.12674 5.41797,-19.85351 -4.82537,-2.3058 -21.21519,11.69273 -26.72294,2.7808 -17.1873,-43.17576 -68.02451,-44.45142 -87.52043,-3.28469 -4.7735,7.95637 -49.67518,5.38928 -55.43274,1.18281 -18.71868,-39.50117 -65.23093,-41.09571 -84.42984,-3.07889 -10.49806,26.88277 -9.34701,-4.40274 -21.30423,-2.67659 z"
         id="path4104"
         sodipodi:nodetypes="cccsccccc"
         inkscape:connector-curvature="0" />
      <circle
         style="fill:#552200;fill-opacity:1;stroke:#000000;stroke-width:7.11355972;stroke-linecap:round;stroke-linejoin:round;stroke-miterlimit:4;stroke-dasharray:none;stroke-opacity:1"
         id="path4106"
         transform="matrix(0.75,0,0,0.75,609.77098,117.55684)"
         cx="104.0358"
         cy="290.76672"
         r="45.348942" />
      <circle
         transform="matrix(0.2205882,0,0,0.2205882,667.84875,274.49216)"
         id="path4108"
         style="fill:#333333;fill-opacity:1;stroke:#000000;stroke-width:24.18610191;stroke-linecap:round;stroke-linejoin:round;stroke-miterlimit:4;stroke-dasharray:none;stroke-opacity:1"
         cx="104.0358"
         cy="290.76672"
         r="45.348942" />
      <circle
         transform="matrix(0.75,0,0,0.75,468.77098,117.55684)"
         id="path4110"
         style="fill:#552200;fill-opacity:1;stroke:#000000;stroke-width:7.11355972;stroke-linecap:round;stroke-linejoin:round;stroke-miterlimit:4;stroke-dasharray:none;stroke-opacity:1"
         cx="104.0358"
         cy="290.76672"
         r="45.348942" />
      <circle
         style="fill:#333333;fill-opacity:1;stroke:#000000;stroke-width:24.18610191;stroke-linecap:round;stroke-linejoin:round;stroke-miterlimit:4;stroke-dasharray:none;stroke-opacity:1"
         id="path4112"
         transform="matrix(0.2205882,0,0,0.2205882,526.84875,274.49216)"
         cx="104.0358"
         cy="290.76672"
         r="45.348942" />
      <path
         style="fill:#ffff00;fill-opacity:1;stroke:#000000;stroke-width:5.33516979;stroke-linecap:round;stroke-linejoin:round;stroke-miterlimit:4;stroke-opacity:1"
         d="m 753.57725,281.45514 c 10.26055,2.28118 10.50265,20.75132 0,22.30421 -3.43177,0 -6.19452,-2.54614 -6.19452,-5.70882 v -10.88657 c 0,-3.16269 2.76275,-5.70882 6.19452,-5.70882 z"
         id="path4114"
         sodipodi:nodetypes="ccccc"
         inkscape:connector-curvature="0" />
      <path
         style="fill:#5555ff;fill-opacity:1;stroke:#000000;stroke-width:5.33516979;stroke-linecap:round;stroke-linejoin:round;stroke-miterlimit:4;stroke-opacity:1"
         d="m 734.77826,277.54117 c 3.23428,0.22971 6.22506,0.65604 8.38896,1.07077 6.27725,0 11.33078,4.75897 11.33078,10.67034 0.52024,6.59217 -0.93299,13.20272 -6.54567,15.44145"
         id="path4116"
         sodipodi:nodetypes="cccs"
         inkscape:connector-curvature="0" />
      <path
         style="fill:#00ffff;fill-opacity:1;stroke:#000000;stroke-width:5.33516979;stroke-linecap:round;stroke-linejoin:round;stroke-miterlimit:4;stroke-opacity:1"
         d="m 623.26344,217.32617 c 14.15154,0.37602 24.90307,14.1095 36.33493,31.92046 -7.16587,4.70151 -31.75649,10.7403 -42.56826,8.30944 -2.8532,-13.40996 -0.53937,-26.81993 6.23333,-40.2299 z"
         id="path4118"
         sodipodi:nodetypes="cccc"
         inkscape:connector-curvature="0" />
      <path
         sodipodi:nodetypes="ccccc"
         id="path4120"
         d="m 545.36947,218.01049 c 18.91165,-5.56787 46.74417,-7.55348 70.41135,-0.75329 -8.11178,11.41879 -8.31415,26.85085 -5.81955,38.19077 -5.89881,-4.76218 -40.18767,-1.99232 -46.55637,1.45489 z"
         style="fill:#00ffff;fill-opacity:1;stroke:#000000;stroke-width:5.33516979;stroke-linecap:round;stroke-linejoin:round;stroke-miterlimit:4;stroke-opacity:1"
         inkscape:connector-curvature="0" />
      <path
         sodipodi:nodetypes="cccc"
         id="path4122"
         d="m 527.66689,217.05576 c -19.82877,9.08454 -36.30899,23.26428 -44.99507,40.94471 18.00579,2.55907 36.01157,2.10144 54.01735,-1.15886 z"
         style="fill:#00ffff;fill-opacity:1;stroke:#000000;stroke-width:5.33516979;stroke-linecap:round;stroke-linejoin:round;stroke-miterlimit:4;stroke-opacity:1"
         inkscape:connector-curvature="0" />
    </g>
    <flowRoot
       style="font-style:normal;font-weight:normal;line-height:0.01%;font-family:'Bitstream Vera Sans';fill:#000000;fill-opacity:1;stroke:none;stroke-width:1px;stroke-linecap:butt;stroke-linejoin:miter;stroke-opacity:1"
       id="flowRoot3676"
       xml:space="preserve"><flowRegion
         id="flowRegion3678"><rect
           y="46.38118"
           x="96.516182"
           height="81.947701"
           width="31.868549"
           id="rect3680" /></flowRegion><flowPara
         id="flowPara3682"> </flowPara></flowRoot>  </g>
</svg>
